<?xml version="1.0" encoding="UTF-8" standalone="no"?>
<!-- Created with Inkscape (http://www.inkscape.org/) -->

<svg
   xmlns:dc="http://purl.org/dc/elements/1.1/"
   xmlns:cc="http://creativecommons.org/ns#"
   xmlns:rdf="http://www.w3.org/1999/02/22-rdf-syntax-ns#"
   xmlns:svg="http://www.w3.org/2000/svg"
   xmlns="http://www.w3.org/2000/svg"
   xmlns:sodipodi="http://sodipodi.sourceforge.net/DTD/sodipodi-0.dtd"
   xmlns:inkscape="http://www.inkscape.org/namespaces/inkscape"
   width="96"
   height="96"
   viewBox="0 0 96.000001 96.000002"
   id="svg2"
   version="1.1"
   inkscape:version="0.91 r13725"
   sodipodi:docname="icon.svg"
   inkscape:export-filename="/Users/matthias/Documents/vplay/v-play-qt5/demos/PlatformerWithLevelEditor/assets/icon/icon_raw.png"
   inkscape:export-xdpi="93"
   inkscape:export-ydpi="93">
  <defs
     id="defs4" />
  <sodipodi:namedview
     id="base"
     pagecolor="#ffffff"
     bordercolor="#666666"
     borderopacity="1.0"
     inkscape:pageopacity="0.0"
     inkscape:pageshadow="2"
     inkscape:zoom="3.959798"
     inkscape:cx="18.007191"
     inkscape:cy="42.597648"
     inkscape:document-units="px"
     inkscape:current-layer="layer1"
     showgrid="false"
     units="px"
     inkscape:window-width="1232"
     inkscape:window-height="755"
     inkscape:window-x="0"
     inkscape:window-y="0"
     inkscape:window-maximized="0" />
  <metadata
     id="metadata7">
    <rdf:RDF>
      <cc:Work
         rdf:about="">
        <dc:format>image/svg+xml</dc:format>
        <dc:type
           rdf:resource="http://purl.org/dc/dcmitype/StillImage" />
        <dc:title></dc:title>
      </cc:Work>
    </rdf:RDF>
  </metadata>
  <g
     inkscape:label="Ebene 1"
     inkscape:groupmode="layer"
     id="layer1"
     transform="translate(0,-956.36216)">
    <path
       d="m 17,1000.7153 c 0,-7.82464 3.506557,-14.50628 9.615886,-20.04501 6.109329,-5.53872 13.479314,-8.30809 22.109954,-8.30809 8.630639,0 16.000623,2.76937 22.109952,8.30809 6.109331,5.53873 9.163997,12.22037 9.163997,20.04501 l 0,19.3854 C 80.134578,1040.2104 17,1040.5528 17,1020.497"
       id="path776"
       inkscape:export-xdpi="90"
       inkscape:export-ydpi="90"
       inkscape:connector-curvature="0"
       style="fill:#f19cb7;stroke:none"
       sodipodi:nodetypes="csssscc" />
    <path
       d="m 46.084269,998.23441 q 0,-3.751 2.6015,-6.5945 2.783,-2.7225 6.776,-2.7225 3.63,0 6.3525,2.7225 2.8435,2.8435 2.8435,6.5945 l -0.121,1.573 q -0.5445,2.72249 -2.7225,4.77939 -2.7225,2.783 -6.3525,2.783 -3.993,0 -6.776,-2.783 -2.057,-2.0569 -2.42,-4.77939 l -0.1815,-1.573 m 9.317,-6.292 q -2.662,0 -4.5375,1.815 -1.7545,1.8755 -1.7545,4.356 0,2.54099 1.7545,4.23499 1.8755,1.8755 4.5375,1.8755 2.42,0 4.235,-1.8755 1.8755,-1.694 1.8755,-4.23499 0,-2.4805 -1.8755,-4.356 -1.815,-1.815 -4.235,-1.815"
       id="path778"
       inkscape:export-xdpi="93.599998"
       inkscape:export-ydpi="93.599998"
       inkscape:connector-curvature="0"
       style="fill:#ffffff;stroke:none" />
    <path
       d="m 55.401269,991.94241 q 2.42,0 4.235,1.815 1.8755,1.8755 1.8755,4.356 0,2.54099 -1.8755,4.23499 -1.815,1.8755 -4.235,1.8755 -2.662,0 -4.5375,-1.8755 -1.7545,-1.694 -1.7545,-4.23499 0,-2.4805 1.7545,-4.356 1.8755,-1.815 4.5375,-1.815 m -6.413,22.14289 0.9075,1.5125 0.5445,0.5445 q 1.9965,1.5125 4.7795,1.5125 2.783,0 4.7795,-1.5125 l 0.726,-0.605 0.847,-1.5125 q 0.1815,-0.484 0.6655,-0.6655 0.4235,-0.242 0.9075,0 l 0.0605,0 q 0.4235,0.121 0.726,0.605 0.242,0.5445 0,1.0285 -0.726,1.694 -2.42,3.025 -2.6015,2.1175 -6.292,2.1175 -3.751,0 -6.292,-2.1175 -1.936,-1.331 -2.3595,-3.146 -0.1815,-0.5445 0.121,-0.9075 0.1815,-0.5445 0.6655,-0.605 l 1.089,0.061 0.5445,0.6655"
       id="path780"
       inkscape:export-xdpi="93.599998"
       inkscape:export-ydpi="93.599998"
       inkscape:connector-curvature="0"
       style="fill:#a55b72;stroke:none" />
  </g>
</svg>
